# xmcd
#
# Track frame offsets:
#	150
#	25381
#	46675
#	66197
#	90206
#	114482
#	133499
#	150731
#	176541
#
# Disc length: 2691 seconds
#
# Revision: 0
# Processed by: cddbd v1.5.2PL0 Copyright (c) Steve Scherf et al.
# Submitted via: EZCDAudioConverter 2.1.7.1
#
DISCID=6f0a8109
DTITLE=Bixiga 70 - III
DYEAR=1900
DGENRE=
TTITLE0=Ventania
TTITLE1=Niran
TTITLE2=100% 13
TTITLE3=Di Dancer
TTITLE4=Machado
TTITLE5=Martelo
TTITLE6=Lembe
TTITLE7=Mil Vidas
TTITLE8=7 Pancadas
EXTD=
EXTT0=
EXTT1=
EXTT2=
EXTT3=
EXTT4=
EXTT5=
EXTT6=
EXTT7=
EXTT8=
PLAYORDER=
